HIERARCHY
ROOT Hips
{
	OFFSET 0.00 0.00 0.00
	CHANNELS 6 Xposition Yposition Zposition Xrotation Yrotation Zrotation
	JOINT Spine
	{
		OFFSET 0.00000 4.88528 0.00000
		CHANNELS 3 Xrotation Yrotation Zrotation
		JOINT Head
		{
			OFFSET 0.00000 16.49416 0.00000
			CHANNELS 3 Xrotation Yrotation Zrotation
			End Site
			{
				OFFSET 0.00000 4.52755 0.00000
			}
		}
		JOINT LeftShoulder
		{
			OFFSET 0.00000 10.66345 0.00000
			CHANNELS 3 Xrotation Yrotation Zrotation
			JOINT LeftArm
			{
				OFFSET 7.53191 0.00000 0.00000
				CHANNELS 3 Xrotation Yrotation Zrotation
				JOINT LeftForeArm
				{
					OFFSET 10.22920 0.00000 0.00000
					CHANNELS 3 Yrotation Zrotation Xrotation
					JOINT LeftHand
					{
						OFFSET 8.67349 0.00000 0.00000
						CHANNELS 3 Xrotation Yrotation Zrotation
						JOINT LeftHandThumb1
						{
							OFFSET 0.00000 0.00000 0.00000
							CHANNELS 3 Xrotation Zrotation Yrotation
							End Site
							{
								OFFSET 0.00000 0.00000 3.93700
							}
						}
						End Site
						{
							OFFSET 3.93700 0.00000 0.00000
						}
					}
				}
			}
		}
		JOINT RightShoulder
		{
			OFFSET 0.00000 10.66345 0.00000
			CHANNELS 3 Xrotation Yrotation Zrotation
			JOINT RightArm
			{
				OFFSET -7.53191 0.00000 0.00000
				CHANNELS 3 Xrotation Yrotation Zrotation
				JOINT RightForeArm
				{
					OFFSET -10.22920 0.00000 0.00000
					CHANNELS 3 Yrotation Zrotation Xrotation
					JOINT RightHand
					{
						OFFSET -8.67349 0.00000 0.00000
						CHANNELS 3 Xrotation Yrotation Zrotation
						JOINT RightHandThumb1
						{
							OFFSET 0.00000 0.00000 0.00000
							CHANNELS 3 Xrotation Zrotation Yrotation
							End Site
							{
								OFFSET 0.00000 0.00000 3.93700
							}
						}
						End Site
						{
							OFFSET -3.93700 0.00000 0.00000
						}
					}
				}
			}
		}
	}
	JOINT LeftUpLeg
	{
		OFFSET 2.67219 0.00000 0.00000
		CHANNELS 3 Xrotation Yrotation Zrotation
		JOINT LeftLeg
		{
			OFFSET 0.00000 -16.26339 0.00000
			CHANNELS 3 Xrotation Yrotation Zrotation
			JOINT LeftFoot
			{
				OFFSET 0.00000 -14.32816 0.00000
				CHANNELS 3 Xrotation Yrotation Zrotation
				JOINT LeftToeBase
				{
					OFFSET 0.00000 -1.30219 4.85985
					CHANNELS 3 Xrotation Yrotation Zrotation
					End Site
					{
						OFFSET 0.00000 0.00000 2.95275
					}
				}
			}
		}
	}
	JOINT RightUpLeg
	{
		OFFSET -2.67219 0.00000 0.00000
		CHANNELS 3 Xrotation Yrotation Zrotation
		JOINT RightLeg
		{
			OFFSET 0.00000 -16.26339 0.00000
			CHANNELS 3 Xrotation Yrotation Zrotation
			JOINT RightFoot
			{
				OFFSET 0.00000 -14.32816 0.00000
				CHANNELS 3 Xrotation Yrotation Zrotation
				JOINT RightToeBase
				{
					OFFSET 0.00000 -1.30219 4.85985
					CHANNELS 3 Xrotation Yrotation Zrotation
					End Site
					{
						OFFSET 0.00000 0.00000 2.95275
					}
				}
			}
		}
	}
}
MOTION
Frames: 22
Frame Time: 0.008333
 -0.5288 35.1610 15.2539 12.0351 8.1373 -9.2136 -2.2115 -9.3450 2.9437 25.1103 -0.8369 -1.7758 47.0736 23.8773 4.2039 -58.1800 -3.7016 -80.1204 3.2670 -0.0000 0.2730 4.9921 -15.9968 17.5867 33.1476 -0.0000 26.2537 0.4251 -8.8127 -24.1898 -16.5790 -1.5233 54.0756 34.2383 0.0000 6.3316 5.6532 17.2945 -18.4165 32.8623 0.0000 -24.3270 -24.4948 -8.6289 5.4771 22.2155 -0.0000 -0.0000 23.1934 -0.5042 -27.1304 -21.7596 -0.0000 -0.0000 -18.4519 0.1921 9.0137 19.1817 0.0000 -0.0000 25.9861 -8.4330 20.7104 -28.2844 -0.0000 0.0000
 -0.4859 34.1297 15.3272 11.9850 7.9692 -9.2032 -2.0879 -9.2910 3.4561 23.1073 -0.9112 -2.3595 47.3762 24.1074 4.3229 -57.7944 -3.4831 -80.7336 4.5464 -0.0000 -0.4250 5.0278 -16.1948 17.5075 33.1476 -0.0000 26.2537 0.5584 -8.3557 -24.8257 -16.2769 -1.7753 53.4060 33.5203 0.0000 7.2947 5.6455 17.4191 -18.2741 32.8623 0.0000 -24.3270 -24.2699 -8.4064 4.0551 23.1808 0.0000 0.0000 12.5093 1.0685 -14.8185 -39.7024 0.0000 -0.0000 -18.6133 2.1499 9.7311 21.3648 0.0000 -0.0000 13.8821 -9.6617 15.3991 -36.1193 -0.0000 0.0000
 -0.4253 33.0939 15.3687 11.9721 7.8449 -9.1003 -1.9221 -9.2560 3.9190 20.9793 -0.9671 -2.9720 47.3313 24.3400 4.5925 -57.1371 -2.7374 -81.2064 5.0459 -0.0000 -1.3740 5.1123 -16.2092 17.7702 33.1476 -0.0000 26.2537 0.6025 -7.7968 -25.4346 -15.8451 -2.0121 52.5069 32.9798 0.0000 8.5471 5.5794 17.2743 -18.2099 32.8623 0.0000 -24.3270 -24.2382 -9.2853 2.9484 25.4850 0.0000 0.0000 -2.6493 7.8246 -10.9477 -19.5835 0.0000 -0.0000 -19.1030 2.4903 9.8642 25.7718 0.0000 -0.0000 -1.8669 -11.0557 8.0917 -23.5380 0.0000 0.0000
 -0.3126 32.0675 15.3769 11.8715 7.3710 -8.0627 -1.6750 -8.7572 3.3625 18.4271 -0.8732 -3.1904 47.1921 24.8305 4.7849 -56.6234 -1.6162 -81.5613 4.7603 -0.0000 -2.1606 5.4690 -16.2580 18.8797 33.1476 -0.0000 26.2537 0.2935 -7.4505 -25.8939 -15.4175 -2.0247 51.6460 32.4521 0.0000 9.2476 5.7410 17.2650 -18.7134 32.8623 0.0000 -24.3270 -24.9939 -9.1176 1.1872 29.4313 -0.0000 -0.0000 -16.4759 12.2248 -8.7059 -3.7790 0.0000 0.0000 -20.7434 1.3226 8.6603 32.9586 -0.0000 0.0000 -14.1620 -10.5092 5.2913 -17.1102 0.0000 -0.0000
 -0.2205 31.1589 15.3341 12.2932 7.1942 -6.7647 -1.7126 -8.5995 2.2261 15.2953 -0.6330 -2.8352 47.2313 25.5550 4.3579 -56.6593 -0.4187 -81.5172 4.0610 -0.0000 -2.9288 6.2388 -16.8184 20.6980 33.1476 -0.0000 26.2537 -0.2773 -7.2830 -25.7925 -15.1210 -2.2033 50.8876 32.0818 0.0000 9.1575 6.3620 17.2069 -20.6515 32.8623 0.0000 -24.3270 -27.3954 -6.3572 -0.7919 35.1375 -0.0000 -0.0000 -24.9744 12.1889 -1.5444 -8.9140 -0.0000 0.0000 -21.8718 1.6904 7.0534 36.4777 -0.0000 0.0000 -24.2536 -10.6740 6.5471 -13.3507 0.0000 -0.0000
 -0.1152 30.5627 15.0358 16.5741 7.7483 -4.6689 -5.9034 -9.3497 -0.6015 13.3220 -0.4407 -2.1900 48.1417 25.8322 2.9338 -57.5668 1.5136 -80.5057 2.7468 -0.0000 -2.2879 7.1032 -17.0181 23.0632 33.1476 -0.0000 26.2537 -0.9024 -7.1714 -24.7509 -14.9129 -2.9657 50.2590 32.2310 0.0000 8.5954 6.7841 17.0157 -22.1228 32.8623 0.0000 -24.3270 -35.4255 -5.9922 -5.0161 42.3760 -0.0000 0.0000 -26.1915 13.4545 2.0218 -16.2176 -0.0000 -0.0000 -27.2124 0.9351 3.7799 39.9827 0.0000 -0.0000 -31.6627 -11.1439 6.0487 -7.7477 0.0000 0.0000
 -0.1007 30.0711 14.9031 19.5430 7.9328 -4.4211 -8.4933 -9.5675 -1.0857 11.3197 -0.6545 -1.9144 49.0621 26.0724 1.2373 -58.4327 3.6438 -79.6970 0.6385 -0.0000 -0.3333 7.4344 -16.5815 24.5718 33.1476 -0.0000 26.2537 -1.4368 -7.3467 -24.3004 -14.7745 -3.9236 50.3814 32.5345 0.0000 6.8464 7.0885 16.6852 -23.4180 32.8623 0.0000 -24.3270 -42.5283 -5.9358 -6.4914 49.1298 0.0000 0.0000 -26.4884 15.3795 -0.2151 -13.4762 -0.0000 0.0000 -32.5588 0.2882 3.5060 46.1260 0.0000 0.0000 -35.1212 -14.2580 2.9872 -8.4253 -0.0000 0.0000
 -0.1640 29.6779 14.9503 19.8766 7.7344 -6.1333 -7.7223 -8.9455 1.2212 8.7306 -1.6848 -2.1281 49.7373 25.5400 0.0876 -59.0023 5.9147 -79.2139 -2.3292 -0.0000 1.8010 7.3743 -16.1856 24.9050 33.1476 -0.0000 26.2537 -1.3368 -8.1573 -24.3158 -15.3412 -5.6418 51.2017 32.9857 0.0000 4.7242 7.3197 16.8242 -23.9318 32.8623 0.0000 -24.3270 -46.3532 -6.1804 -4.8222 55.2515 0.0000 0.0000 -25.8438 14.7725 -3.7214 -11.1208 -0.0000 0.0000 -35.5397 -0.1595 5.8430 51.1254 0.0000 -0.0000 -35.4020 -16.5167 2.8213 -6.5568 0.0000 0.0000
 -0.0823 29.3825 15.0703 18.6256 8.1341 -5.5539 -5.6100 -8.8326 1.1476 6.2294 -2.3682 -2.1509 50.0215 25.2797 -0.3005 -58.5601 6.9249 -79.1343 -5.5047 -0.0000 2.4569 7.2537 -16.1701 24.5624 33.1476 -0.0000 26.2537 0.1258 -8.7648 -24.2657 -16.7822 -7.7953 52.7493 33.4223 0.0000 3.5585 7.1051 17.0097 -23.0786 32.8623 0.0000 -24.3270 -47.1758 -6.3225 -5.5415 59.1539 0.0000 0.0000 -24.7461 14.0135 -5.4490 -15.5441 0.0000 -0.0000 -36.6869 -0.5781 5.3341 55.7307 0.0000 -0.0000 -34.5815 -16.4271 2.1396 -6.6818 0.0000 -0.0000
 -0.0327 29.2225 15.2278 16.5907 8.0289 -5.8350 -2.6544 -7.9494 2.2075 4.1684 -3.2608 -2.2311 49.3734 24.8202 0.3784 -57.1102 6.5931 -79.5560 -8.1280 -0.0000 2.2781 7.3868 -16.5340 24.4917 33.1476 -0.0000 26.2537 1.4499 -9.2547 -24.2647 -17.5269 -9.3318 54.2392 33.3378 0.0000 3.4382 6.6963 17.4596 -21.3711 32.8623 0.0000 -24.3270 -46.4287 -6.8193 -5.1279 62.1881 -0.0000 -0.0000 -23.6511 12.7910 -6.4226 -18.2674 0.0000 -0.0000 -36.4155 -0.6677 6.3053 59.1273 0.0000 0.0000 -32.4747 -17.6020 1.1520 -13.0250 -0.0000 0.0000
 0.0434 29.1173 15.3621 14.6747 7.6909 -5.9980 0.0551 -6.7322 3.0794 2.4859 -3.9674 -2.2472 48.9928 24.6175 1.3735 -56.1090 5.1191 -80.3040 -9.7091 -0.0000 2.1358 7.7468 -16.7299 25.2944 33.1476 -0.0000 26.2537 2.2766 -9.6143 -24.4356 -17.3327 -9.3305 55.6759 32.4351 0.0000 4.2510 6.1922 17.6452 -19.6940 32.8623 0.0000 -24.3270 -45.0148 -7.3624 -4.8002 63.6774 -0.0000 -0.0000 -23.1886 12.6213 -7.3894 -21.6700 -0.0000 0.0000 -35.9783 -0.0498 7.2829 61.6651 0.0000 0.0000 -30.6646 -18.7476 2.1035 -13.9714 -0.0000 -0.0000
 0.1248 29.1022 15.4624 13.3376 6.8775 -6.0931 2.0234 -5.2799 3.7036 1.1760 -4.5194 -2.2398 48.6401 24.5902 2.3391 -55.5127 3.3799 -80.9072 -10.1815 -0.0000 2.7616 8.1949 -16.8896 26.3669 33.1476 -0.0000 26.2537 2.5939 -9.7982 -24.5738 -16.3904 -7.8218 56.9261 31.0720 0.0000 5.3725 5.7399 17.9839 -18.0332 32.8623 0.0000 -24.3270 -43.5795 -7.2376 -4.3190 64.0811 0.0000 -0.0000 -23.5079 13.1404 -7.1501 -21.5705 -0.0000 0.0000 -35.7713 0.8612 8.3682 63.4147 -0.0000 -0.0000 -28.1924 -18.9162 1.3874 -17.5888 0.0000 0.0000
 0.1682 29.1563 15.5430 12.7426 5.7157 -6.2266 3.0337 -3.8522 4.0968 0.4052 -5.0027 -2.2654 48.4055 24.6773 3.1173 -55.0567 0.6032 -81.0483 -9.7985 -0.0000 2.6649 8.5758 -16.9069 27.4090 33.1476 -0.0000 26.2537 2.5644 -9.7974 -24.5835 -14.9685 -5.3564 57.9867 29.8361 0.0000 6.1491 5.3505 18.1596 -16.7257 32.8623 0.0000 -24.3270 -42.3507 -6.9649 -3.7967 63.4754 -0.0000 -0.0000 -24.5321 14.2233 -6.2481 -19.2410 -0.0000 -0.0000 -35.9821 1.6064 9.3800 64.5859 0.0000 -0.0000 -25.7298 -19.4940 1.2998 -19.6516 0.0000 -0.0000
 0.2246 29.2316 15.6301 12.5973 4.6285 -5.8664 3.3465 -2.8246 3.8078 0.3366 -5.2415 -2.2164 48.5235 25.0127 3.5932 -55.0429 -2.9590 -80.8991 -8.5403 -0.0000 1.3257 8.8292 -17.1515 27.7766 33.1476 -0.0000 26.2537 2.5021 -9.6006 -24.5667 -13.4052 -2.4122 59.0627 28.7300 0.0000 7.1931 5.2961 17.5373 -17.0996 32.8623 0.0000 -24.3270 -41.3285 -5.9787 -3.5522 62.3538 0.0000 0.0000 -25.3239 14.6309 -5.1197 -18.7133 0.0000 0.0000 -36.4098 2.2902 9.6327 65.4700 0.0000 -0.0000 -23.6187 -19.9908 1.1861 -22.0961 0.0000 -0.0000
 0.2853 29.3519 15.7147 12.8471 3.7759 -5.1903 3.1439 -2.3720 3.0775 0.7698 -5.2988 -2.0649 48.6972 25.4952 3.7856 -55.0662 -6.4701 -80.4439 -7.0379 -0.0000 -0.5235 8.7306 -17.1727 27.4801 33.1476 -0.0000 26.2537 2.4239 -9.1412 -24.4134 -11.9629 0.0954 60.0887 28.0714 0.0000 7.8680 5.6231 17.4234 -18.2018 32.8623 0.0000 -24.3270 -40.4383 -4.8191 -3.5748 60.6646 0.0000 0.0000 -25.8599 14.5696 -4.3160 -17.6141 -0.0000 0.0000 -37.0011 2.9759 9.3828 65.9733 0.0000 0.0000 -21.6949 -19.8164 0.3417 -25.0084 -0.0000 -0.0000
 0.3380 29.5176 15.7863 13.4216 3.2792 -4.4364 2.5729 -2.2839 2.2207 1.4996 -5.2442 -1.8560 48.6541 25.9034 3.9883 -55.2132 -7.9144 -79.8577 -5.4859 -0.0000 -1.7453 8.3268 -17.2218 26.3053 33.1476 -0.0000 26.2537 2.3449 -8.7084 -24.0836 -11.0807 1.5214 61.1405 27.7310 0.0000 8.3187 6.0256 17.7449 -19.1029 32.8623 0.0000 -24.3270 -39.7208 -3.8264 -3.7984 58.5880 0.0000 0.0000 -25.9364 14.3645 -3.6875 -17.4112 0.0000 -0.0000 -37.6999 3.3542 8.6730 66.1189 -0.0000 0.0000 -19.8758 -18.9100 -0.6114 -24.6271 0.0000 -0.0000
 0.3755 29.7265 15.8528 14.1073 3.0063 -4.0568 1.9458 -2.4466 1.7970 2.3672 -4.9863 -1.7074 48.4216 26.2871 4.1393 -55.5644 -6.9985 -79.2797 -4.0850 -0.0000 -2.2512 7.7469 -17.2059 24.6973 33.1476 -0.0000 26.2537 2.1842 -8.1826 -23.7189 -10.6103 1.8658 62.2524 27.6490 0.0000 8.0012 6.5735 18.3084 -20.1449 32.8623 0.0000 -24.3270 -39.2189 -3.1491 -3.7759 56.5827 0.0000 -0.0000 -25.4767 13.9011 -3.3822 -17.1124 0.0000 -0.0000 -38.2997 3.5088 8.1340 65.7234 -0.0000 0.0000 -18.0243 -17.9627 -1.4293 -25.5666 -0.0000 -0.0000
 0.3897 29.9786 15.9083 14.9710 2.9134 -4.1273 1.2086 -2.8592 1.9084 3.2353 -4.5556 -1.7861 48.0276 26.6374 4.1890 -55.8284 -5.0502 -78.5843 -3.1469 -0.0000 -2.7297 7.1839 -17.0177 23.3002 33.1476 -0.0000 26.2537 2.1667 -7.7250 -23.3166 -10.7049 1.6066 63.2883 27.7481 0.0000 6.9573 6.6119 18.0838 -20.4768 32.8623 0.0000 -24.3270 -39.1162 -2.8358 -3.4256 54.8060 0.0000 0.0000 -24.2802 13.1666 -3.4356 -17.5746 0.0000 -0.0000 -38.9560 3.4010 7.8911 64.9545 -0.0000 -0.0000 -15.8232 -17.0818 -2.0244 -26.9597 -0.0000 0.0000
 0.4540 30.2672 15.9673 15.7681 3.0402 -3.9343 0.5911 -3.5238 1.9048 4.0904 -4.0516 -2.1714 47.6653 26.9166 4.0251 -56.2008 -2.4735 -77.8008 -2.5958 0.0000 -2.9737 6.8726 -16.9040 22.5148 33.1476 -0.0000 26.2537 2.3457 -7.3791 -22.8814 -11.1878 1.1218 64.0898 28.0101 0.0000 5.8192 6.3889 17.4588 -20.4663 32.8623 0.0000 -24.3270 -39.0370 -2.5691 -3.4892 53.0259 -0.0000 0.0000 -22.1998 12.2927 -3.8169 -19.4352 -0.0000 -0.0000 -39.4546 3.2548 7.1333 64.1358 0.0000 -0.0000 -13.5943 -16.0509 -2.3450 -27.8894 0.0000 -0.0000
 0.5234 30.5769 16.0277 16.4417 3.2500 -3.9331 0.1754 -4.2851 2.2177 4.8645 -3.3082 -2.7185 47.1891 27.1090 3.8946 -56.4679 0.5645 -76.9730 -2.5051 0.0000 -2.7452 6.8050 -16.7303 22.5158 33.1476 -0.0000 26.2537 2.4922 -7.0789 -22.5833 -11.8515 0.6412 64.8575 28.1896 0.0000 5.1294 6.1806 17.0746 -20.2451 32.8623 0.0000 -24.3270 -38.9837 -2.6232 -3.4827 51.4853 0.0000 0.0000 -19.6430 11.3238 -4.5232 -21.1336 -0.0000 -0.0000 -39.7491 2.8961 6.4991 63.0734 -0.0000 0.0000 -11.1713 -14.9889 -3.2823 -28.8276 0.0000 -0.0000
 0.5774 30.8903 16.0855 16.8978 3.5471 -4.2387 0.0713 -5.0670 2.9085 5.6167 -2.5095 -3.3287 46.7925 27.2390 3.8925 -56.7440 3.5385 -76.1562 -2.8628 -0.0000 -2.4075 6.8452 -16.6513 22.7303 33.1476 -0.0000 26.2537 2.4858 -6.7621 -22.4789 -12.4523 0.3394 65.5933 28.1792 0.0000 5.2662 5.8645 16.7193 -19.6484 32.8623 0.0000 -24.3270 -38.9032 -3.0893 -3.2863 50.2977 0.0000 -0.0000 -16.8385 10.3930 -5.2941 -23.2822 -0.0000 0.0000 -39.8105 2.3466 6.1668 61.9434 0.0000 0.0000 -8.9994 -14.2555 -3.9519 -29.0380 0.0000 0.0000
 0.6025 31.2114 16.1375 17.1583 3.9500 -4.8436 0.3303 -5.6573 3.8674 6.1853 -2.1043 -3.8476 46.2431 27.2442 4.1788 -56.9667 5.8958 -75.3244 -3.4754 -0.0000 -1.8344 7.0208 -16.4575 23.4948 33.1476 -0.0000 26.2537 2.2503 -6.6533 -22.3810 -12.8818 0.3729 66.1809 28.0726 0.0000 6.0904 5.7143 16.5972 -19.3062 32.8623 0.0000 -24.3270 -38.8300 -3.6699 -2.7772 49.4520 -0.0000 0.0000 -13.7261 9.3503 -6.1263 -25.7595 -0.0000 -0.0000 -39.6410 1.5289 6.1217 60.6636 -0.0000 0.0000 -6.7731 -13.7888 -4.6134 -29.2251 -0.0000 0.0000
